<svg xmlns="http://www.w3.org/2000/svg" width="384" height="82" viewBox="0 0 384 82" fill="none">
<path d="M127.916 80.9999L121.116 67.1404H261.904L255.105 80.9999H127.916Z" fill="url(#paint0_linear_802_106)" stroke="url(#paint1_linear_802_106)" stroke-width="0.793594"/>
<path d="M23.6966 0H355.12L381.779 36.8614L355.12 73.7228H23.6966L0 36.8614L23.6966 0Z" fill="url(#paint2_linear_802_106)"/>
<path d="M3.88853 36.8615L25.9418 3.13306H352.563L377.21 36.8615L352.563 70.59H25.9418L3.88853 36.8615Z" fill="url(#paint3_linear_802_106)" stroke="black"/>
<path opacity="0.3" d="M74.1051 36.8613H1.31653L8.59963 46.6362H65.7815L88.6713 69.7733H105.318L74.1051 36.8613Z" fill="url(#paint4_linear_802_106)"/>
<path opacity="0.3" d="M310.307 36.8613H383.095L375.812 46.6362H318.63L295.741 69.7733H279.094L310.307 36.8613Z" fill="url(#paint5_linear_802_106)"/>
<rect x="182.381" y="69.8669" width="12.1648" height="12.1648" transform="rotate(-45 182.381 69.8669)" fill="#D9D9D9" stroke="black"/>
<defs>
<linearGradient id="paint0_linear_802_106" x1="191.51" y1="67.1404" x2="191.558" y2="80.9821" gradientUnits="userSpaceOnUse">
<stop stop-color="#FDE38F"/>
<stop offset="1" stop-color="#866134"/>
</linearGradient>
<linearGradient id="paint1_linear_802_106" x1="191.51" y1="67.1404" x2="191.558" y2="80.9821" gradientUnits="userSpaceOnUse">
<stop stop-color="#FDE38F"/>
<stop offset="1" stop-color="#866134"/>
</linearGradient>
<linearGradient id="paint2_linear_802_106" x1="190.89" y1="-1.54399e-07" x2="191.39" y2="73.6256" gradientUnits="userSpaceOnUse">
<stop stop-color="#FDE38F"/>
<stop offset="1" stop-color="#866134"/>
</linearGradient>
<linearGradient id="paint3_linear_802_106" x1="190.56" y1="2.63306" x2="191" y2="71" gradientUnits="userSpaceOnUse">
<stop stop-color="#FDE38F"/>
<stop offset="1" stop-color="#866134"/>
</linearGradient>
<linearGradient id="paint4_linear_802_106" x1="-0.806812" y1="57.5488" x2="82.3599" y2="80.5538" gradientUnits="userSpaceOnUse">
<stop offset="0.183614" stop-color="white" stop-opacity="0"/>
<stop offset="1" stop-color="white"/>
</linearGradient>
<linearGradient id="paint5_linear_802_106" x1="385.219" y1="57.5488" x2="302.052" y2="80.5538" gradientUnits="userSpaceOnUse">
<stop offset="0.183614" stop-color="white" stop-opacity="0"/>
<stop offset="1" stop-color="white"/>
</linearGradient>
</defs>
</svg>