<svg xmlns="http://www.w3.org/2000/svg" width="384" height="82" viewBox="0 0 384 82" fill="none">
<path d="M128.011 80.9999L121.212 67.1404H262L255.2 80.9999H128.011Z" fill="url(#paint0_linear_802_107)" stroke="url(#paint1_linear_802_107)" stroke-width="0.793594"/>
<path d="M0.689863 36.8614L24.0651 0.5H354.96L381.257 36.8614L354.96 73.2228H24.0651L0.689863 36.8614Z" fill="black" stroke="url(#paint2_linear_802_107)"/>
<path d="M5.66254 36.8614L27.5995 4.19946H350.462L374.979 36.8614L350.462 69.5234H27.5995L5.66254 36.8614Z" fill="black" stroke="url(#paint3_linear_802_107)" stroke-width="0.5"/>
<path opacity="0.3" d="M74.2005 36.8613H1.41193L8.69503 46.6362H65.8769L88.7667 69.7733H105.414L74.2005 36.8613Z" fill="url(#paint4_linear_802_107)"/>
<path opacity="0.3" d="M310.402 36.8613H383.191L375.908 46.6362H318.726L295.836 69.7733H279.189L310.402 36.8613Z" fill="url(#paint5_linear_802_107)"/>
<rect x="182.477" y="69.8669" width="12.1648" height="12.1648" transform="rotate(-45 182.477 69.8669)" fill="black" stroke="url(#paint6_linear_802_107)"/>
<defs>
<linearGradient id="paint0_linear_802_107" x1="191.606" y1="67.1404" x2="191.653" y2="80.9821" gradientUnits="userSpaceOnUse">
<stop stop-color="#FDE38F"/>
<stop offset="1" stop-color="#866134"/>
</linearGradient>
<linearGradient id="paint1_linear_802_107" x1="191.606" y1="67.1404" x2="191.653" y2="80.9821" gradientUnits="userSpaceOnUse">
<stop stop-color="#FDE38F"/>
<stop offset="1" stop-color="#866134"/>
</linearGradient>
<linearGradient id="paint2_linear_802_107" x1="190.985" y1="-1.54399e-07" x2="191.485" y2="73.6256" gradientUnits="userSpaceOnUse">
<stop stop-color="#FDE38F"/>
<stop offset="1" stop-color="#866134"/>
</linearGradient>
<linearGradient id="paint3_linear_802_107" x1="190.327" y1="3.94946" x2="190.738" y2="69.6871" gradientUnits="userSpaceOnUse">
<stop stop-color="#FDE38F"/>
<stop offset="1" stop-color="#866134"/>
</linearGradient>
<linearGradient id="paint4_linear_802_107" x1="-0.711414" y1="57.5488" x2="82.4553" y2="80.5538" gradientUnits="userSpaceOnUse">
<stop offset="0.183614" stop-color="white" stop-opacity="0"/>
<stop offset="1" stop-color="white"/>
</linearGradient>
<linearGradient id="paint5_linear_802_107" x1="385.314" y1="57.5488" x2="302.148" y2="80.5538" gradientUnits="userSpaceOnUse">
<stop offset="0.183614" stop-color="white" stop-opacity="0"/>
<stop offset="1" stop-color="white"/>
</linearGradient>
<linearGradient id="paint6_linear_802_107" x1="188.352" y1="69.8669" x2="188.814" y2="82.9987" gradientUnits="userSpaceOnUse">
<stop stop-color="#FDE38F"/>
<stop offset="1" stop-color="#866134"/>
</linearGradient>
</defs>
</svg>